<svg width="356" height="55" viewBox="0 0 356 55" fill="none" xmlns="http://www.w3.org/2000/svg">
<path d="M23.2364 54.5395L14.5554 37.8289H14.4901V54.5395H0V7.96053H21.5394C25.2815 7.96053 28.4798 8.64035 31.1342 10C33.7885 11.3158 35.7684 13.136 37.0738 15.4605C38.4227 17.7412 39.0972 20.3289 39.0972 23.2237C39.0972 26.3377 38.2269 29.1009 36.4864 31.5132C34.7893 33.9254 32.3308 35.6579 29.1108 36.7105L39.1625 54.5395H23.2364ZM14.4901 28.0921H20.2339C21.6264 28.0921 22.6707 27.7851 23.3669 27.1711C24.0632 26.5132 24.4113 25.5044 24.4113 24.1447C24.4113 22.9167 24.0414 21.9518 23.3017 21.25C22.6054 20.5482 21.5829 20.1974 20.2339 20.1974H14.4901V28.0921Z" fill="#0D903A"/>
<path d="M79.3641 35.6579C79.3641 36.6667 79.2989 37.6316 79.1683 38.5526H55.8667C56.0842 41.7544 57.4114 43.3553 59.8482 43.3553C61.4147 43.3553 62.546 42.6316 63.2423 41.1842H78.5809C78.0587 43.8158 76.9491 46.1842 75.2521 48.2895C73.5986 50.3509 71.4881 51.9956 68.9208 53.2237C66.397 54.4079 63.6121 55 60.5662 55C56.911 55 53.6475 54.2325 50.7756 52.6974C47.9472 51.1623 45.7279 48.9693 44.1179 46.1184C42.5514 43.2237 41.7682 39.8465 41.7682 35.9868C41.7682 32.1272 42.5514 28.7719 44.1179 25.9211C45.7279 23.0263 47.9472 20.8114 50.7756 19.2763C53.6475 17.7412 56.911 16.9737 60.5662 16.9737C64.2213 16.9737 67.4631 17.7412 70.2915 19.2763C73.1634 20.7675 75.3826 22.9167 76.9491 25.7237C78.5591 28.5307 79.3641 31.8421 79.3641 35.6579ZM64.6782 32.1711C64.6782 30.943 64.2866 30.0219 63.5034 29.4079C62.7201 28.75 61.741 28.4211 60.5662 28.4211C57.9989 28.4211 56.4976 29.6711 56.0625 32.1711H64.6782Z" fill="#0D903A"/>
<path d="M109.729 17.1711C113.95 17.1711 117.235 18.5965 119.585 21.4474C121.978 24.2982 123.175 28.1579 123.175 33.0263V54.5395H108.75V34.8684C108.75 33.114 108.271 31.7325 107.314 30.7237C106.4 29.6711 105.16 29.1447 103.593 29.1447C101.983 29.1447 100.721 29.6711 99.8077 30.7237C98.8939 31.7325 98.437 33.114 98.437 34.8684V54.5395H83.9469V17.4342H98.437V23.0921C99.5683 21.3377 101.07 19.9123 102.941 18.8158C104.855 17.7193 107.118 17.1711 109.729 17.1711Z" fill="#0D903A"/>
<path d="M152.368 42.1053V54.5395H146.885C136.79 54.5395 131.742 49.4737 131.742 39.3421V29.6053H127.173V17.4342H131.742V8.48684H146.233V17.4342H152.237V29.6053H146.233V39.6053C146.233 40.4825 146.428 41.1184 146.82 41.5132C147.255 41.9079 147.951 42.1053 148.909 42.1053H152.368Z" fill="#0D903A"/>
<path d="M180.405 55C176.053 55 172.05 53.9693 168.395 51.9079C164.783 49.8465 161.911 46.9956 159.779 43.3553C157.647 39.7149 156.581 35.614 156.581 31.0526C156.581 26.4912 157.647 22.3904 159.779 18.75C161.911 15.1097 164.783 12.2807 168.395 10.2632C172.05 8.20176 176.053 7.17105 180.405 7.17105C184.756 7.17105 188.738 8.20176 192.349 10.2632C195.961 12.2807 198.811 15.1097 200.9 18.75C203.032 22.3904 204.098 26.4912 204.098 31.0526C204.098 35.614 203.032 39.7149 200.9 43.3553C198.811 46.9956 195.939 49.8465 192.284 51.9079C188.672 53.9693 184.713 55 180.405 55ZM180.405 41.3816C183.277 41.3816 185.496 40.4605 187.062 38.6184C188.629 36.7325 189.412 34.2105 189.412 31.0526C189.412 27.8509 188.629 25.3289 187.062 23.4868C185.496 21.6009 183.277 20.6579 180.405 20.6579C177.489 20.6579 175.248 21.6009 173.682 23.4868C172.115 25.3289 171.332 27.8509 171.332 31.0526C171.332 34.2105 172.115 36.7325 173.682 38.6184C175.248 40.4605 177.489 41.3816 180.405 41.3816Z" fill="#000929"/>
<path d="M230.538 14.8026C229.755 14.7149 229.211 14.6711 228.907 14.6711C227.819 14.6711 226.992 14.8904 226.426 15.3289C225.861 15.7237 225.469 16.4254 225.251 17.4342H230.538V29.6053H225.121V54.5395H210.631V29.6053H206.715V17.4342H210.631C210.718 12.6097 212.219 8.88158 215.134 6.25C218.093 3.57456 222.227 2.23684 227.536 2.23684C228.145 2.23684 229.146 2.2807 230.538 2.36842V14.8026Z" fill="#000929"/>
<path d="M255.652 14.8026C254.869 14.7149 254.325 14.6711 254.021 14.6711C252.933 14.6711 252.106 14.8904 251.54 15.3289C250.975 15.7237 250.583 16.4254 250.365 17.4342H255.652V29.6053H250.235V54.5395H235.745V29.6053H231.828V17.4342H235.745C235.832 12.6097 237.333 8.88158 240.248 6.25C243.207 3.57456 247.341 2.23684 252.65 2.23684C253.259 2.23684 254.26 2.2807 255.652 2.36842V14.8026Z" fill="#000929"/>
<path d="M266.864 14.4737C264.34 14.4737 262.316 13.7939 260.793 12.4342C259.27 11.0746 258.509 9.36404 258.509 7.30263C258.509 5.19737 259.27 3.46491 260.793 2.10526C262.316 0.701754 264.34 0 266.864 0C269.344 0 271.346 0.701754 272.869 2.10526C274.391 3.46491 275.153 5.19737 275.153 7.30263C275.153 9.36404 274.391 11.0746 272.869 12.4342C271.346 13.7939 269.344 14.4737 266.864 14.4737ZM274.043 17.4342V54.5395H259.553V17.4342H274.043Z" fill="#000929"/>
<path d="M278.63 35.9868C278.63 32.1272 279.413 28.7719 280.979 25.9211C282.589 23.0263 284.809 20.8114 287.637 19.2763C290.509 17.7412 293.772 16.9737 297.428 16.9737C302.214 16.9737 306.239 18.3333 309.503 21.0526C312.81 23.7719 314.898 27.5439 315.769 32.3684H300.43C299.864 30.4386 298.755 29.4737 297.101 29.4737C295.926 29.4737 294.991 30.0219 294.295 31.1184C293.642 32.2149 293.316 33.8377 293.316 35.9868C293.316 38.136 293.642 39.7588 294.295 40.8553C294.991 41.9518 295.926 42.5 297.101 42.5C298.755 42.5 299.864 41.5351 300.43 39.6053H315.769C314.898 44.4298 312.81 48.2018 309.503 50.9211C306.239 53.6404 302.214 55 297.428 55C293.772 55 290.509 54.2325 287.637 52.6974C284.809 51.1623 282.589 48.9693 280.979 46.1184C279.413 43.2237 278.63 39.8465 278.63 35.9868Z" fill="#000929"/>
<path d="M356 35.6579C356 36.6667 355.935 37.6316 355.804 38.5526H332.503C332.72 41.7544 334.047 43.3553 336.484 43.3553C338.051 43.3553 339.182 42.6316 339.878 41.1842H355.217C354.695 43.8158 353.585 46.1842 351.888 48.2895C350.234 50.3509 348.124 51.9956 345.557 53.2237C343.033 54.4079 340.248 55 337.202 55C333.547 55 330.283 54.2325 327.411 52.6974C324.583 51.1623 322.364 48.9693 320.754 46.1184C319.187 43.2237 318.404 39.8465 318.404 35.9868C318.404 32.1272 319.187 28.7719 320.754 25.9211C322.364 23.0263 324.583 20.8114 327.411 19.2763C330.283 17.7412 333.547 16.9737 337.202 16.9737C340.857 16.9737 344.099 17.7412 346.927 19.2763C349.799 20.7675 352.018 22.9167 353.585 25.7237C355.195 28.5307 356 31.8421 356 35.6579ZM341.314 32.1711C341.314 30.943 340.922 30.0219 340.139 29.4079C339.356 28.75 338.377 28.4211 337.202 28.4211C334.635 28.4211 333.133 29.6711 332.698 32.1711H341.314Z" fill="#000929"/>
</svg>
