<svg width="326" height="152" viewBox="0 0 326 152" fill="none" xmlns="http://www.w3.org/2000/svg">
<path d="M324.5 75.5C325.328 75.5 326 76.1716 326 77C326 77.8284 325.328 78.5 324.5 78.5H1.5C0.671573 78.5 0 77.8284 0 77C0 76.1716 0.671573 75.5 1.5 75.5H324.5Z" fill="#0D903A"/>
<path d="M302.5 99L302.653 99.0078C303.41 99.0846 304 99.7233 304 100.5C304 101.277 303.41 101.915 302.653 101.992L302.5 102H275C274.172 102 273.5 101.328 273.5 100.5C273.5 99.6716 274.172 99 275 99H302.5Z" fill="#0D903A" fill-opacity="0.5"/>
<path d="M239.5 99L239.653 99.0078C240.41 99.0846 241 99.7233 241 100.5C241 101.277 240.41 101.915 239.653 101.992L239.5 102H212C211.172 102 210.5 101.328 210.5 100.5C210.5 99.6716 211.172 99 212 99H239.5Z" fill="#0D903A" fill-opacity="0.5"/>
<path d="M176 99L176.153 99.0078C176.91 99.0846 177.5 99.7233 177.5 100.5C177.5 101.277 176.91 101.915 176.153 101.992L176 102H148.5C147.672 102 147 101.328 147 100.5C147 99.6716 147.672 99 148.5 99H176Z" fill="#0D903A" fill-opacity="0.5"/>
<path d="M113.5 99L113.653 99.0078C114.41 99.0846 115 99.7233 115 100.5C115 101.277 114.41 101.915 113.653 101.992L113.5 102H86C85.1716 102 84.5 101.328 84.5 100.5C84.5 99.6716 85.1716 99 86 99H113.5Z" fill="#0D903A" fill-opacity="0.5"/>
<path d="M50 99L50.1533 99.0078C50.9097 99.0846 51.5 99.7233 51.5 100.5C51.5 101.277 50.9097 101.915 50.1533 101.992L50 102H22.5C21.6716 102 21 101.328 21 100.5C21 99.6716 21.6716 99 22.5 99H50Z" fill="#0D903A" fill-opacity="0.5"/>
<path d="M269 124L269.153 124.008C269.91 124.085 270.5 124.723 270.5 125.5C270.5 126.277 269.91 126.915 269.153 126.992L269 127H241.5C240.672 127 240 126.328 240 125.5C240 124.672 240.672 124 241.5 124H269Z" fill="#0D903A" fill-opacity="0.5"/>
<path d="M206 124L206.153 124.008C206.91 124.085 207.5 124.723 207.5 125.5C207.5 126.277 206.91 126.915 206.153 126.992L206 127H178.5C177.672 127 177 126.328 177 125.5C177 124.672 177.672 124 178.5 124H206Z" fill="#0D903A" fill-opacity="0.5"/>
<path d="M142.5 124L142.653 124.008C143.41 124.085 144 124.723 144 125.5C144 126.277 143.41 126.915 142.653 126.992L142.5 127H115C114.172 127 113.5 126.328 113.5 125.5C113.5 124.672 114.172 124 115 124H142.5Z" fill="#0D903A" fill-opacity="0.5"/>
<path d="M80 124L80.1533 124.008C80.9097 124.085 81.5 124.723 81.5 125.5C81.5 126.277 80.9097 126.915 80.1533 126.992L80 127H52.5C51.6716 127 51 126.328 51 125.5C51 124.672 51.6716 124 52.5 124H80Z" fill="#0D903A" fill-opacity="0.5"/>
<path d="M237.5 149L237.653 149.008C238.41 149.085 239 149.723 239 150.5C239 151.277 238.41 151.915 237.653 151.992L237.5 152H210C209.172 152 208.5 151.328 208.5 150.5C208.5 149.672 209.172 149 210 149H237.5Z" fill="#0D903A" fill-opacity="0.5"/>
<path d="M174.5 149L174.653 149.008C175.41 149.085 176 149.723 176 150.5C176 151.277 175.41 151.915 174.653 151.992L174.5 152H147C146.172 152 145.5 151.328 145.5 150.5C145.5 149.672 146.172 149 147 149H174.5Z" fill="#0D903A" fill-opacity="0.5"/>
<path d="M111 149L111.153 149.008C111.91 149.085 112.5 149.723 112.5 150.5C112.5 151.277 111.91 151.915 111.153 151.992L111 152H83.5C82.6716 152 82 151.328 82 150.5C82 149.672 82.6716 149 83.5 149H111Z" fill="#0D903A" fill-opacity="0.5"/>
<path d="M77.6416 52.459L86.5371 50.0479L92.9668 73.7676L84.0723 76.1787L84.2949 77H13.0771L11.5342 71.3086L34.1162 8.82324L63.6426 0.818359L77.6416 52.459ZM38.8496 62.9746L52.1924 59.3584L46.666 38.9736L38.8496 62.9746Z" fill="#0D903A"/>
<path d="M161 53C165.971 53 170 60.1634 170 69C170 71.5105 169.673 73.8855 169.094 76H152.906C152.327 73.8855 152 71.5105 152 69C152 60.1634 156.029 53 161 53Z" fill="#0D903A" fill-opacity="0.5"/>
<path d="M161.4 22C175.08 22.0001 185.723 26.5422 192.73 36.0039L193.36 36.8691C199.758 45.9084 202.8 57.8823 202.8 72.4883C202.8 74.021 202.765 75.525 202.698 77H199.695C199.743 75.971 199.777 74.9254 199.791 73.8633L199.8 72.4883C199.8 57.8109 196.643 46.2478 190.328 37.7998C184.211 29.5332 174.97 25.2711 162.606 25.0127L161.4 25C148.344 25 138.658 29.2239 132.344 37.6719L131.77 38.4736C125.923 46.8488 123 58.187 123 72.4883L123.009 73.8633C123.023 74.9254 123.055 75.971 123.103 77H120.101C120.035 75.525 120 74.0211 120 72.4883C120 57.338 123.193 45.0274 129.93 35.8916L129.941 35.876C136.957 26.4899 147.649 22 161.4 22ZM161.788 51.8848C165.753 51.9907 168.397 53.7388 169.72 57.1279C171.085 60.5413 171.768 65.6616 171.768 72.4883L171.76 73.7637C171.745 74.8908 171.71 75.9695 171.657 77H168.652C168.727 75.6096 168.768 74.1069 168.768 72.4883C168.768 65.7732 168.084 61.1157 166.935 58.2422L166.925 58.2188C166.44 56.9766 165.783 56.2136 165.016 55.7295C164.224 55.23 163.079 54.8799 161.4 54.8799C159.668 54.8799 158.485 55.2344 157.671 55.7402C156.886 56.228 156.227 56.9895 155.747 58.2188L155.737 58.2422C154.588 61.1157 153.904 65.7732 153.904 72.4883C153.904 74.1069 153.945 75.6095 154.02 77H151.015C150.962 75.9695 150.926 74.8908 150.912 73.7637L150.904 72.4883C150.904 66.0883 151.504 61.1881 152.704 57.7881L152.952 57.1279C154.317 53.6293 157.134 51.8799 161.4 51.8799L161.788 51.8848Z" fill="#0D903A"/>
<path d="M321.907 21.3008L303.771 71.6367L312.44 74.7607L311.634 77H246.157L230.773 71.457L238.801 49.1787L293.127 10.9307L321.907 21.3008ZM265.958 58.0117L278.964 62.6982L286.123 42.8291L265.958 58.0117Z" fill="#0D903A"/>
</svg>
