<svg width="854" height="355" viewBox="0 0 854 355" fill="none" xmlns="http://www.w3.org/2000/svg">
<path d="M362.656 20L354.812 60.375C341.626 65.3481 329.517 72.3189 318.906 81.0312L280.125 67.6562L242.75 132.344L273.812 159.344C272.618 166.675 272 173.47 272 180C272 186.54 272.637 193.322 273.812 200.656V200.688L242.75 227.688L280.125 292.344L318.875 279C329.486 287.717 341.623 294.649 354.812 299.625L362.656 340H437.344L445.188 299.625C458.383 294.649 470.478 287.689 481.094 278.969L519.875 292.344L557.219 227.688L526.188 200.656C527.382 193.325 528 186.53 528 180C528 173.479 527.378 166.694 526.188 159.375V159.344L557.25 132.312L519.875 67.6562L481.125 81C470.514 72.2829 458.377 65.3509 445.188 60.375L437.344 20H362.656ZM389.031 52H410.969L417.188 84L433.875 90.3125C443.934 94.1035 452.971 99.3081 460.812 105.75L474.625 117.062L505.375 106.5L516.344 125.469L491.781 146.844L494.594 164.438V164.469C495.572 170.468 496 175.5 496 180C496 184.5 495.572 189.531 494.594 195.531L491.75 213.125L516.312 234.5L505.344 253.5L474.625 242.906L460.781 254.25C452.94 260.692 443.934 265.896 433.875 269.688H433.844L417.156 276L410.938 308H389.031L382.812 276L366.125 269.688C356.066 265.896 347.029 260.692 339.188 254.25L325.375 242.938L294.625 253.5L283.656 234.531L308.25 213.125L305.406 195.594V195.562C304.442 189.537 304 184.491 304 180C304 175.5 304.428 170.469 305.406 164.469L308.25 146.875L283.656 125.5L294.625 106.5L325.375 117.094L339.188 105.75C347.029 99.3081 356.066 94.1035 366.125 90.3125L382.812 84L389.031 52ZM400 116C364.856 116 336 144.856 336 180C336 215.144 364.856 244 400 244C435.144 244 464 215.144 464 180C464 144.856 435.144 116 400 116ZM400 148C417.784 148 432 162.216 432 180C432 197.784 417.784 212 400 212C382.216 212 368 197.784 368 180C368 162.216 382.216 148 400 148Z" fill="#0D903A"/>
<path d="M712.585 46.5718L691.179 72.8974C679.668 71.3934 668.162 71.7613 657.067 73.9784L634.109 49.1856L581.798 81.728L593.85 113.435C590.13 118.305 587.037 123.007 584.496 127.758C581.951 132.516 579.775 137.697 577.775 143.489L577.763 143.512L544.7 151.089L546.684 212.642L580.016 217.985C584.33 228.448 590.446 238.205 598.088 246.947L588.074 279.366L642.311 308.375L663.717 282.049C675.235 283.554 686.727 283.189 697.829 280.968L720.787 305.761L773.063 273.229L761.046 241.512C764.766 236.642 767.859 231.94 770.4 227.189C772.937 222.445 775.125 217.267 777.108 211.48L777.121 211.458L810.195 203.858L808.212 142.305L774.88 136.962C770.566 126.499 764.45 116.742 756.808 107.999L766.822 75.5806L712.585 46.5718ZM719.287 80.0953L735.217 88.6159L727.282 114.311L736.944 125.384C742.774 132.049 747.311 139.345 750.499 147.077L756.128 160.672L782.568 164.931L783.153 182.991L756.999 189.001L752.196 202.892L752.184 202.915C750.56 207.659 748.912 211.486 747.162 214.76C745.411 218.033 743.142 221.528 740.097 225.512L731.187 237.207L740.707 262.297L725.348 271.859L707.163 252.221L692.696 255.096C684.495 256.737 675.93 257.025 667.15 255.876L667.128 255.864L652.553 253.975L635.586 274.839L619.678 266.331L627.613 240.636L617.951 229.562C612.122 222.897 607.584 215.601 604.396 207.869L598.768 194.275L572.328 190.015L571.743 171.956L597.932 165.935L602.688 152.077L602.7 152.054C604.344 147.297 605.987 143.454 607.734 140.187C609.485 136.913 611.753 133.419 614.798 129.434L623.709 117.74L614.166 92.6374L629.525 83.0755L647.733 102.726L662.177 99.8381C670.378 98.1974 678.966 97.9212 687.745 99.0701L702.32 100.959L719.287 80.0953ZM702.35 130.914C676.829 117.264 644.647 127.049 630.972 152.616C617.297 178.182 627.024 210.382 652.546 224.032C678.067 237.682 710.249 227.898 723.924 202.331C737.598 176.764 727.871 144.565 702.35 130.914ZM689.899 154.194C702.813 161.101 707.605 176.965 700.686 189.902C693.766 202.839 677.911 207.66 664.997 200.753C652.083 193.845 647.29 177.982 654.21 165.044C661.129 152.107 676.985 147.287 689.899 154.194Z" fill="#0D903A"/>
<path d="M213.145 107.63H87.2851V144.086C92.7824 139.167 99.8711 135.261 108.551 132.368C117.52 129.475 127.502 128.028 138.497 128.028C158.172 128.028 174.808 132.657 188.407 141.916C202.006 151.175 212.132 163.616 218.787 179.24C225.442 194.575 228.769 211.645 228.769 230.452C228.769 265.172 218.932 292.225 199.257 311.61C179.872 330.706 153.108 340.254 118.967 340.254C94.0844 340.254 72.5291 335.914 54.3011 327.234C36.3624 318.554 22.6191 306.547 13.0711 291.212C3.81239 275.877 -0.527607 258.373 0.0510587 238.698H93.7951C93.7951 243.327 95.3864 247.667 98.5691 251.718C101.752 255.769 106.96 257.794 114.193 257.794C121.426 257.794 126.779 255.19 130.251 249.982C133.723 244.774 135.459 237.685 135.459 228.716C135.459 220.325 133.434 213.96 129.383 209.62C125.622 205.28 120.124 203.11 112.891 203.11C106.815 203.11 102.186 204.557 99.0031 207.45C95.8204 210.343 94.2291 213.671 94.2291 217.432H0.485061V23H213.145V107.63Z" fill="#0D903A"/>
</svg>
