<svg width="88" height="81" viewBox="0 0 88 81" fill="none" xmlns="http://www.w3.org/2000/svg">
<path d="M13 21L1 53H11L13 48V21Z" fill="#0D903A"/>
<path d="M75 21L87 53H77L75 48V21Z" fill="#0D903A"/>
<path d="M88 81H0V56H31.1289L35.6445 64H53.3555L57.8711 56H88V81Z" fill="#0D903A"/>
<path d="M72 42H16V17H25.2842C26.58 24.0596 32.1711 29.6859 39.3564 31.2734L42.8623 38.1035L46.2354 31.5293C54.0905 30.4052 60.3355 24.5144 61.7148 17H72V42Z" fill="#0D903A"/>
<path d="M43.5 0C51.5081 0 58 6.26801 58 14C58 21.0287 52.6352 26.8463 45.6436 27.8467L43 33L40.2529 27.6465C33.8082 26.2228 29 20.6541 29 14C29 6.26801 35.4919 0 43.5 0ZM50.3086 8.05371C49.7188 7.47198 48.7692 7.47854 48.1875 8.06836L43.6885 12.6289L39.1895 8.06836C38.6077 7.47854 37.6582 7.47198 37.0684 8.05371C36.4786 8.63544 36.472 9.585 37.0537 10.1748L41.5811 14.7656L37.0537 19.3564C36.472 19.9463 36.4785 20.8968 37.0684 21.4785C37.6582 22.0598 38.6079 22.0534 39.1895 21.4639L43.6885 16.9014L48.1875 21.4639C48.7692 22.0533 49.7189 22.0599 50.3086 21.4785C50.8984 20.8968 50.905 19.9463 50.3232 19.3564L45.7949 14.7656L50.3232 10.1748C50.9049 9.58506 50.8982 8.63546 50.3086 8.05371Z" fill="#0D903A"/>
</svg>
