<?xml version="1.0" encoding="utf-8"?>
<!-- Generator: Adobe Illustrator 22.1.0, SVG Export Plug-In . SVG Version: 6.00 Build 0)  -->
<svg version="1.1" id="Layer_1" xmlns="http://www.w3.org/2000/svg" xmlns:xlink="http://www.w3.org/1999/xlink" x="0px" y="0px"
	 viewBox="0 0 41 40" style="enable-background:new 0 0 41 40;" xml:space="preserve">
<style type="text/css">
	.st0{fill:#D1D5DC;}
	.st1{fill:none;stroke:#FFFFFF;stroke-width:2;stroke-miterlimit:10;}
</style>
<path class="st0" d="M20.5,0L20.5,0c11,0,20,9,20,20l0,0c0,11-9,20-20,20l0,0c-11,0-20-9-20-20l0,0C0.5,9,9.5,0,20.5,0z"/>
<path class="st1" d="M28.8,25.3c0,0.3-0.1,0.6-0.2,0.9c-0.1,0.3-0.3,0.6-0.6,0.9c-0.4,0.5-0.9,0.8-1.4,1c-0.5,0.2-1,0.3-1.6,0.3
	c-0.9,0-1.8-0.2-2.7-0.6c-1-0.4-1.9-1-2.9-1.6c-1-0.7-1.9-1.5-2.7-2.3c-0.9-0.9-1.6-1.8-2.3-2.7c-0.7-1-1.2-1.9-1.6-2.8
	c-0.4-0.9-0.6-1.9-0.6-2.7c0-0.6,0.1-1.1,0.3-1.6c0.2-0.5,0.5-1,1-1.4c0.5-0.5,1.1-0.8,1.7-0.8c0.2,0,0.5,0,0.7,0.1
	c0.2,0.1,0.4,0.3,0.6,0.5l1.9,2.7c0.1,0.2,0.3,0.4,0.3,0.6c0.1,0.2,0.1,0.4,0.1,0.5c0,0.2-0.1,0.4-0.2,0.6c-0.1,0.2-0.3,0.4-0.5,0.6
	l-0.6,0.7c-0.1,0.1-0.1,0.2-0.1,0.3c0,0.1,0,0.1,0,0.2c0,0.1,0,0.1,0.1,0.2c0.1,0.3,0.4,0.6,0.8,1.1c0.4,0.4,0.8,0.9,1.2,1.3
	c0.5,0.4,0.9,0.8,1.3,1.2c0.4,0.4,0.8,0.6,1.1,0.8c0,0,0.1,0,0.1,0.1c0.1,0,0.1,0,0.2,0c0.1,0,0.3-0.1,0.3-0.1l0.6-0.6
	c0.2-0.2,0.4-0.4,0.6-0.5c0.2-0.1,0.4-0.2,0.6-0.2c0.2,0,0.3,0,0.5,0.1c0.2,0.1,0.4,0.2,0.6,0.3l2.8,2c0.2,0.1,0.4,0.3,0.5,0.5
	C28.8,24.8,28.8,25,28.8,25.3z"/>
</svg>
