<?xml version="1.0" encoding="utf-8"?>
<!-- Generator: Adobe Illustrator 22.1.0, SVG Export Plug-In . SVG Version: 6.00 Build 0)  -->
<svg version="1.1" xmlns="http://www.w3.org/2000/svg" xmlns:xlink="http://www.w3.org/1999/xlink" x="0px" y="0px"
	 viewBox="0 0 41 40" style="enable-background:new 0 0 41 40;" xml:space="preserve">
<style type="text/css">
	.st0{fill:#0D903A;}
	.st1{display:none;}
</style>
<g id="Layer_1">
	<path class="st0" d="M20.5,0C15,0,10,2.2,6.4,5.9S0.5,14.5,0.5,20s2.2,10.5,5.9,14.1S15,40,20.5,40s10.5-2.2,14.1-5.9
		s5.9-8.6,5.9-14.1C40.5,9,31.5,0,20.5,0z M20.5,28.6c-1.7,0-3.3-0.4-4.8-1.1l-2.3,0.3l-2.8,0.4l0.5-2.8l0.3-1.9
		c-0.7-1.3-1.2-2.8-1.2-4.4c0-5.2,4.5-9.4,10.1-9.4s10.1,4.2,10.1,9.4S26.1,28.6,20.5,28.6z"/>
</g>
<g id="Layer_2" class="st1">
	
		<image style="display:inline;overflow:visible;" width="50" height="50" xlink:href="C:\Users\USER\Downloads\icons8-whatsapp-50.png"  transform="matrix(0.4395 0 0 0.4033 9.5175 9.0834)">
	</image>
</g>
<g id="Layer_3">
	<path class="st0" d="M18.1,18.7c0.6,0.7,1.7,1.9,2.9,2.4c0.5,0.2,1.1,0.1,1.5-0.3l0.2-0.2c0.3-0.3,0.7-0.4,1.1-0.2l1.3,0.5
		c0.5,0.2,0.8,0.8,0.5,1.3c-0.4,0.8-1.4,1.6-3.8,1c0,0-4.4-0.7-6.3-5.3c0-0.1-0.1-0.2-0.1-0.3c-0.1-0.5-0.2-2.3,1.3-2.9
		c0.4-0.2,0.9,0,1.1,0.4l0.4,0.7c0.4,0.6,0.3,1.3-0.1,1.7l0,0C17.9,18,17.9,18.4,18.1,18.7z"/>
</g>
</svg>
