<?xml version="1.0" encoding="utf-8"?>
<!-- Generator: Adobe Illustrator 22.1.0, SVG Export Plug-In . SVG Version: 6.00 Build 0)  -->
<svg version="1.1" xmlns="http://www.w3.org/2000/svg" xmlns:xlink="http://www.w3.org/1999/xlink" x="0px" y="0px"
	 viewBox="0 0 30 30" style="enable-background:new 0 0 30 30;" xml:space="preserve">
<style type="text/css">
	.st0{display:none;}
	.st1{fill:none;stroke:#0D903A;stroke-width:2;stroke-miterlimit:10;}
	.st2{fill:#0D903A;}
</style>
<g id="Layer_2" class="st0">
	
		<image style="display:inline;overflow:visible;" width="96" height="96" xlink:href="C:\Users\USER\Downloads\icons8-coin-96.png"  transform="matrix(0.3125 0 0 0.3125 0 0)">
	</image>
</g>
<g id="Layer_3">
	<g>
		<circle class="st1" cx="15" cy="14.6" r="12"/>
		<g>
			<path class="st2" d="M19.6,8.7l-2.3,2C16.6,9.6,15.8,9,14.9,9c-0.4,0-0.7,0.1-1,0.3s-0.4,0.5-0.4,0.7s0.1,0.5,0.3,0.8
				c0.2,0.3,1,1,2.2,2.1c1.2,1,1.9,1.6,2.1,1.8c0.6,0.6,1.1,1.2,1.3,1.8c0.3,0.6,0.4,1.2,0.4,1.9c0,1.3-0.5,2.4-1.4,3.3
				C17.6,22.6,16.5,23,15,23c-1.1,0-2.1-0.3-3-0.8c-0.8-0.6-1.6-1.4-2.2-2.6l2.6-1.6c0.8,1.4,1.7,2.1,2.7,2.1c0.5,0,1-0.2,1.3-0.5
				s0.5-0.7,0.5-1.1c0-0.4-0.1-0.7-0.4-1.1c-0.3-0.4-0.9-0.9-1.8-1.7c-1.8-1.4-2.9-2.5-3.4-3.3c-0.5-0.8-0.8-1.5-0.8-2.3
				c0-1.1,0.4-2.1,1.3-2.9s1.9-1.2,3.1-1.2c0.8,0,1.6,0.2,2.3,0.6C18,7,18.8,7.7,19.6,8.7z"/>
		</g>
		<line class="st1" x1="15" y1="2.6" x2="15" y2="7.1"/>
		<line class="st1" x1="15" y1="27.4" x2="15" y2="21.8"/>
	</g>
</g>
</svg>
