<?xml version="1.0" encoding="utf-8"?>
<!-- Generator: Adobe Illustrator 22.1.0, SVG Export Plug-In . SVG Version: 6.00 Build 0)  -->
<svg version="1.1" id="Layer_2" xmlns="http://www.w3.org/2000/svg" xmlns:xlink="http://www.w3.org/1999/xlink" x="0px" y="0px"
	 viewBox="0 0 30 30" style="enable-background:new 0 0 30 30;" xml:space="preserve">
<style type="text/css">
	.st0{fill:none;stroke:#0D903A;stroke-width:2;stroke-miterlimit:10;}
</style>
<path class="st0" d="M27.6,14.9l0,5.3c0,1-0.6,1.9-1.5,2.3c-0.5,0.3-1,0.5-1.6,0.5H5.3c-1.3,0-2.3-0.8-2.7-2c0,0,0,0,0,0
	c-0.1-0.2-0.1-0.4-0.1-0.6c0-0.1,0-0.2,0-0.3v-5.2c0-1.4,1.1-2.5,2.5-2.5h0.3c1.4,0,2.5,1.1,2.5,2.5v2h14.9v-2
	c0-1.4,1.1-2.5,2.5-2.5h0.3C26.5,12.5,27.6,13.6,27.6,14.9z"/>
<path class="st0" d="M25.1,8.8v3.6h-0.2c-1.4,0-2.5,1.1-2.5,2.5v2H7.5v-2c0-1.4-1.1-2.5-2.5-2.5H4.9V8.8c0-1.4,1.2-2.6,2.6-2.6h14.9
	C23.9,6.3,25.1,7.4,25.1,8.8z"/>
<line class="st0" x1="7.5" y1="23" x2="7.5" y2="26.3"/>
<line class="st0" x1="22.5" y1="23" x2="22.5" y2="26.3"/>
</svg>
