<?xml version="1.0" encoding="utf-8"?>
<!-- Generator: Adobe Illustrator 22.1.0, SVG Export Plug-In . SVG Version: 6.00 Build 0)  -->
<svg version="1.1" id="Layer_1" xmlns="http://www.w3.org/2000/svg" xmlns:xlink="http://www.w3.org/1999/xlink" x="0px" y="0px"
	 viewBox="0 0 30 30" style="enable-background:new 0 0 30 30;" xml:space="preserve">
<style type="text/css">
	.st0{fill:none;stroke:#0D903A;stroke-width:2;stroke-miterlimit:10;}
	.st1{fill:none;stroke:#0D903A;stroke-width:2;stroke-linecap:round;stroke-miterlimit:10;}
	.st2{fill:none;stroke:#67B984;stroke-linecap:square;stroke-linejoin:round;stroke-miterlimit:10;}
	.st3{fill:#0D903A;}
	.st4{fill:none;stroke:#0D903A;stroke-width:2;stroke-linecap:round;stroke-linejoin:round;stroke-miterlimit:10;}
</style>
<path class="st0" d="M26.6,12.1v8.4c0,1.3-1.1,2.4-2.4,2.4h-2.6v-3c0-1.2-1-2.1-2.1-2.1h-9c-1.2,0-2.1,1-2.1,2.1v3H5.7
	c-1.2,0-2.1-0.9-2.1-2.1v-8.5c0-1.8,1.5-3.3,3.3-3.3h16.7C25.2,9.1,26.6,10.4,26.6,12.1z"/>
<line class="st1" x1="8.4" y1="4.6" x2="8.4" y2="9.1"/>
<line class="st1" x1="21.5" y1="4.6" x2="21.5" y2="9.1"/>
<g>
	<path class="st2" d="M44.5-6"/>
</g>
<path class="st3" d="M15.7,6.6l2-2.1C18.1,4,17.8,3.1,17,3.1l-4,0.1c-0.7,0-1.1,0.9-0.6,1.4l2,2C14.8,6.9,15.4,6.9,15.7,6.6z"/>
<line class="st4" x1="15" y1="1.6" x2="15" y2="3.5"/>
<path class="st4" d="M21.6,19.9v5.2c0,1.2-1,2.1-2.1,2.1h-9c-1.2,0-2.1-1-2.1-2.1v-5.2c0-1.2,1-2.1,2.1-2.1h9
	C20.7,17.8,21.6,18.7,21.6,19.9z"/>
</svg>
