<svg width="65" height="65" viewBox="0 0 65 65" fill="none" xmlns="http://www.w3.org/2000/svg">
<circle cx="32.5" cy="32.5" r="32.5" fill="#0D903A"/>
<path d="M29.5 15C21.5156 15 15 21.5156 15 29.5C15 37.4844 21.5156 44 29.5 44C32.7731 44 35.7889 42.893 38.2207 41.0508L47.5859 50.414C48.0875 50.9365 48.8324 51.147 49.5333 50.9643C50.2342 50.7816 50.7816 50.2342 50.9643 49.5333C51.147 48.8325 50.9365 48.0876 50.414 47.5859L41.0508 38.2207C42.893 35.7889 44 32.7731 44 29.5C44 21.5156 37.4844 15 29.5 15ZM29.5 19C35.3227 19 40 23.6773 40 29.5C40 32.2957 38.9141 34.8206 37.1484 36.6973C36.9766 36.8217 36.8256 36.9727 36.7012 37.1445C34.8241 38.9124 32.2977 40 29.5 40C23.6773 40 19 35.3227 19 29.5C19 23.6773 23.6773 19 29.5 19Z" fill="white"/>
</svg>
