<?xml version="1.0" encoding="utf-8"?>
<!-- Generator: Adobe Illustrator 22.1.0, SVG Export Plug-In . SVG Version: 6.00 Build 0)  -->
<svg version="1.1" id="Layer_3" xmlns="http://www.w3.org/2000/svg" xmlns:xlink="http://www.w3.org/1999/xlink" x="0px" y="0px"
	 viewBox="0 0 30 30" style="enable-background:new 0 0 30 30;" xml:space="preserve">
<style type="text/css">
	.st0{fill:none;stroke:#0D903A;stroke-width:2;stroke-miterlimit:10;}
	.st1{fill:#0D903A;}
</style>
<g>
	<path class="st0" d="M17.9,11.5l-1.7,5.8l-3.1,10.3c-0.1,0.2-0.3,0.3-0.5,0.2c-1.7-1.3-8.4-6.6-11-13c-0.1-0.4,0-0.8,0.3-1
		c1.4-0.9,5.6-3.2,11.3-3.3c1.4,0,2.8,0.1,4.3,0.3C17.8,10.9,18,11.2,17.9,11.5z"/>
	<path class="st0" d="M28.5,8.9c-1.1,1.8-5.7,9.1-8.9,12.2c-0.2,0.2-0.5,0.2-0.7,0c-0.5-0.6-1.6-1.9-2.8-3.8l1.7-5.8
		c0.1-0.3-0.1-0.6-0.4-0.6c-1.5-0.3-3-0.3-4.3-0.3c-0.7-2.4-1.2-5.1-1-8.1c0-0.2,0.2-0.3,0.3-0.3c1.8,0,10.6,0.2,15.9,6
		C28.6,8.3,28.6,8.7,28.5,8.9z"/>
	<circle class="st1" cx="9.4" cy="15.3" r="1.2"/>
	<circle class="st1" cx="16.6" cy="6.9" r="1.2"/>
	<circle class="st1" cx="22.8" cy="11.7" r="1.2"/>
	<circle class="st1" cx="21" cy="14.6" r="0.6"/>
	<circle class="st1" cx="22.2" cy="7.5" r="0.6"/>
	<circle class="st1" cx="11.8" cy="20.1" r="1.1"/>
	<circle class="st1" cx="9" cy="18.3" r="0.5"/>
	<circle class="st1" cx="6.6" cy="15.8" r="0.5"/>
</g>
</svg>
